<?xml version="1.0" encoding="iso-8859-1"?>
<!-- Uploaded to: SVG Repo, www.svgrepo.com, Generator: SVG Repo Mixer Tools -->
<!DOCTYPE svg PUBLIC "-//W3C//DTD SVG 1.1//EN" "http://www.w3.org/Graphics/SVG/1.1/DTD/svg11.dtd">
<svg fill="#000000" version="1.1" id="Capa_1" xmlns="http://www.w3.org/2000/svg" xmlns:xlink="http://www.w3.org/1999/xlink" 
	 width="800px" height="800px" viewBox="0 0 196.184 196.184"
	 xml:space="preserve">
<g>
	<g>
		<path d="M195.745,59.253c-0.17-0.339-0.474-0.653-0.738-0.931c-0.113-0.12-0.229-0.238-0.341-0.36
			c0.361,0.396-0.001-0.042-0.062-0.157c-0.49-0.914-1.305-1.212-2.093-1.114c-0.15-0.078-0.297-0.162-0.474-0.208
			c0,0,0.002-0.003,0.003-0.005c-14.78-5.932-28.835-12.497-44.144-17.293c-15.945-4.995-31.954-10.215-48.136-14.378
			c-0.336-0.086-0.642-0.041-0.926,0.053c-4.211-0.609-9.517,1.402-13.076,2.456c-8.732,2.587-17.146,6.293-25.562,9.737
			c-19.207,7.86-38.987,13.219-58.681,19.52c-0.558,0.178-0.83,0.57-0.885,0.99c-0.811,0.812-0.959,2.379,0.269,3.032
			c6.938,3.694,15.055,5.659,22.407,8.361c5.032,1.85,10.141,3.53,15.268,5.156c-0.907,3.142-1.4,6.394-1.674,9.685
			c-1.084,0.663-1.379,2.402-0.203,3.326c-0.221,6.006,0.203,12.093,0.512,17.913c0.052,0.983,0.696,2.193,1.791,2.352
			c1.794,0.259,3.59,0.479,5.385,0.713c-1.886,6.923-2.168,13.824-4.776,20.781c-3.134,8.356-6.992,16.5-8.853,25.268
			c-0.101,0.473-0.018,0.866,0.138,1.209c-0.189,0.858,0.177,1.87,1.191,2.194c7.635,2.432,16.538,2.853,24.484,3.302
			c3.146,0.179,12.518,1.712,15.956-1.288c6.302,6.482,14.326,10.927,23.757,11.771c11.308,1.011,20.83-5.833,28.265-13.929
			c13.032,0.301,26.089,0.03,39.127,0.038c2.31,0.003,3.236-2.335,2.416-4.21c-6.054-13.847-10.03-27.688-14.646-41.93
			c6.097-0.531,12.001-2.225,13.577-8.751c1.99-8.244,1.346-18.96-0.547-27.676c6.2-1.669,12.429-3.265,18.391-5.557
			c-1.35,12.08-1.925,24.259-2.146,36.42c-1.673,1.036-3.09,2.957-3.832,4.924c-1.664,4.418-0.312,10.707,4.821,12.119
			c4.297,1.182,7.052-3.729,7.781-7.18c0.395-1.871,0.451-3.97-0.247-5.777c-0.435-1.125-1.369-2.444-2.509-3.026
			c-0.003-0.004-0.003-0.008-0.007-0.012c-0.279-0.325-0.565-0.587-0.854-0.82c0.339-12.721,1.097-25.454,0.626-38.164
			c1.948-0.871,3.864-1.827,5.729-2.919c0.346-0.203,0.608-0.447,0.813-0.71c0.249-0.028,0.499-0.053,0.752-0.05
			c1.032,0.013,1.797-0.693,2.125-1.618C196.316,61.393,196.273,60.312,195.745,59.253z M78.345,35.503
			c0.001,0.012,0.006,0.023,0.008,0.036c-2.072,0.738-4.109,1.61-6.095,2.697c-0.089-0.086-0.176-0.175-0.277-0.247
			C74.093,37.141,76.216,36.313,78.345,35.503z M65.553,155.451c-4.111,0.199-8.254-0.06-12.36-0.26
			c-6.15-0.3-12.313-0.816-18.467-1.062c3.098-8.924,7.274-17.42,10.6-26.256c1.975-5.249,5.369-13.606,2.871-19.27
			c3.212,0.39,6.426,0.744,9.643,1.064c-2.979,14.898,1.219,32.748,10.851,45.429C67.537,155.233,66.146,155.422,65.553,155.451z
			 M96.283,165.635c-25.323-0.517-35.786-34.732-34.987-55.643c24.944,2.286,50.008,2.561,75.074,1.871
			C140.285,133.302,119.615,166.111,96.283,165.635z M159.386,151.853c-10.551,0.02-21.131,0.173-31.562,1.765
			c0.868-1.066,1.712-2.136,2.509-3.195c7.455-9.911,15.504-25.854,11.541-38.726c0.709-0.022,1.419-0.043,2.128-0.066
			c0.85-0.03,1.738-0.051,2.645-0.077C147.282,125.331,153.689,139.163,159.386,151.853z M133.388,89.073
			c-9.668,2.743-18.782,7.052-28.653,9.134c-11.071,2.334-22.979-4.742-32.666-9.11c-9.838-4.437-20.312-7.188-30.162-11.608
			c0.025-0.763,0.04-1.525,0.069-2.289c6.501,2.018,13.032,3.942,19.523,5.909c11.345,3.438,22.725,6.813,34.219,9.72
			c2.571,0.65,10.113,3.648,12.969,1.239c15.581-2.971,30.296-9.181,45.311-14.134c1.806-0.596,3.632-1.138,5.464-1.663
			c0.184,1.034,0.342,2.087,0.482,3.152C152.058,84.715,142.396,86.516,133.388,89.073z M183.473,117.744
			c-0.375,0.43-0.335,0.388-0.598,0.472c0.21-0.068-0.062,0.009-0.091-0.004c-0.5-0.234-0.894-0.697-1.221-1.134
			c-0.016-0.021-0.022-0.04-0.037-0.061c0.34,0.255,0.746,0.407,1.169,0.478c0.284,0.153,0.658,0.15,0.94,0.009
			c0.006-0.001,0.011,0,0.016-0.001C183.593,117.585,183.536,117.672,183.473,117.744z"/>
	</g>
</g>
</svg>